<svg xmlns="http://www.w3.org/2000/svg"><symbol id="pin-pink" viewBox="0 0 256 256"><defs><style>.cls-1{fill:#f50057}</style></defs><g id="A2"><path d="M128 14a79.29 79.29 0 0 0-47.58 142.68l40.48 81a8 8 0 0 0 3.55 3.55 7.94 7.94 0 0 0 10.64-3.55l40.47-80.95A79.29 79.29 0 0 0 128 14zm0 134.79a55.5 55.5 0 1 1 55.5-55.5 55.5 55.5 0 0 1-55.5 55.47z" class="cls-1"/><circle cx="128" cy="93.26" r="39.64" class="cls-1"/></g></symbol><symbol id="back" viewBox="0 0 256 256"><defs><style>.cls-1{fill:#f50057}</style></defs><g id="A2"><path d="M45.8 112.31h190.81v31.38H45.8z" class="cls-1" transform="rotate(180 141.2 128)"/><path d="M47.89 112.42l56.18 56.18-22.04 22.03L19.4 128l28.49-15.58z" class="cls-1"/><path d="M47.89 143.58l56.18-56.18-22.04-22.03L19.4 128l28.49 15.58z" class="cls-1"/></g></symbol><symbol id="big-c" viewBox="0 0 256 256"><defs><style>.cls-1{fill:#f40057}.cls-2{fill:#c41162}</style></defs><g id="A2"><path d="M165.71 204.49A235.59 235.59 0 0 1 140 206q-32.61 0-48.1-10.59a48.62 48.62 0 0 1-20.06-30.85 284.37 284.37 0 0 1-4.54-58.11 255.2 255.2 0 0 1 5.1-57.9A50.55 50.55 0 0 1 92.81 17.3a83.2 83.2 0 0 1 46.35-10.41 239.25 239.25 0 0 1 26.35 1.51 123 123 0 0 1 12.8 2 11.15 11.15 0 0 1 8.93 10.83v26.92a196.67 196.67 0 0 0-35.93-3 55.34 55.34 0 0 0-25.5 4.34 22.62 22.62 0 0 0-10.14 16.65 221.33 221.33 0 0 0-2.55 40.33 218.19 218.19 0 0 0 2.64 40.69 22.74 22.74 0 0 0 10.4 16.48 56.43 56.43 0 0 0 25.56 4 246.25 246.25 0 0 0 37.1-2.63v26.18a11.28 11.28 0 0 1-9.13 11.12q-6.36 1.31-14 2.15z" class="cls-1"/><path d="M71.19 216.88h113.66c2.18 0 3.94 4.87 3.94 10.86v22.95H67.27v-22.95c0-5.95 1.73-10.82 3.92-10.86z" class="cls-2"/></g></symbol><symbol id="pin-grey" viewBox="0 0 256 256"><defs><style>.cls-1{fill:#907b84}</style></defs><g id="A2"><path d="M128 14a79.29 79.29 0 0 0-47.58 142.68l40.48 81a8 8 0 0 0 3.55 3.55 7.94 7.94 0 0 0 10.64-3.55l40.47-80.95A79.29 79.29 0 0 0 128 14zm0 134.79a55.5 55.5 0 1 1 55.5-55.5 55.5 55.5 0 0 1-55.5 55.47z" class="cls-1"/><circle cx="128" cy="93.26" r="39.64" class="cls-1" transform="rotate(-16.85 127.947 93.226)"/></g></symbol><symbol id="search" viewBox="0 0 256 256"><defs><style>.cls-1{fill:#f50057}</style></defs><g id="A2"><g id="Group_15"><path id="Subtraction_1" d="M232.16 196.84l-20.11 24.84L148.18 170a76.06 76.06 0 0 1-47.45 16.66 77 77 0 0 1-76.42-68.47A75.46 75.46 0 0 1 91 34.82l.84-.09a76.64 76.64 0 0 1 76.45 110.4zM62.56 80.06a48.31 48.31 0 1 0 68-6.6l-.29-.24a48.17 48.17 0 0 0-67.71 6.84z" class="cls-1"/></g></g></symbol><symbol id="close" viewBox="0 0 256 256"><defs><style>.cls-1{fill:#f50057}</style></defs><g id="A2"><path d="M57.71 33.3l161.66 169.17-21.08 20.23L36.63 53.52 57.71 33.3z" class="cls-1"/><path d="M219.37 53.52L57.71 222.7l-21.08-20.23L198.29 33.3l21.08 20.22z" class="cls-1"/></g></symbol></svg>
