<svg xmlns="http://www.w3.org/2000/svg"><symbol id="logo" viewBox="0 0 64.8 29.52"><defs><style>.cls-1{fill:#f40057}.cls-2{fill:#c41162}</style></defs><g id="A3_-_Logo"><path d="M19.29 20.43h-.19a2.62 2.62 0 0 1-2.55 1.38 2.86 2.86 0 0 1-1.74-.43A2.17 2.17 0 0 1 14 20.1a11.49 11.49 0 0 1-.19-2.32v-7h4v7.18a.7.7 0 0 0 .15.46.85.85 0 0 0 .48.09.8.8 0 0 0 .51-.11.75.75 0 0 0 .15-.49v-7.1h4v10.83h-3.73zm4.8-9.62H28l.08 1.76h.21a3 3 0 0 1 1.05-1.51 3.21 3.21 0 0 1 1.78-.42v3.72a5.06 5.06 0 0 0-1.75.23 1.69 1.69 0 0 0-.94.9 5.07 5.07 0 0 0-.31 2v4.16h-4zm11.98 9.62h-.21l-.09 1.21h-3.91V5.86h4v6h.21a2.18 2.18 0 0 1 1-1 3.24 3.24 0 0 1 1.42-.28 2.75 2.75 0 0 1 1.74.5 2.91 2.91 0 0 1 .93 1.71 15.58 15.58 0 0 1 .28 3.38 15.59 15.59 0 0 1-.29 3.41 2.87 2.87 0 0 1-.93 1.67 2.76 2.76 0 0 1-1.71.48 2.44 2.44 0 0 1-2.44-1.3zm1.16-2c.09-.07.15-.25.18-.55s0-.85 0-1.68v-1.69a.83.83 0 0 0-.18-.54 1 1 0 0 0-.57-.11 1.07 1.07 0 0 0-.47.07c-.1 0-.16.17-.21.35a15.32 15.32 0 0 0-.08 1.92v1.12a4.13 4.13 0 0 0 .07.75.55.55 0 0 0 .19.38 1.18 1.18 0 0 0 .49.08 1.06 1.06 0 0 0 .58-.07zm13.83-1.33h-5.31a4.21 4.21 0 0 0 .12 1.24.63.63 0 0 0 .5.41 7.65 7.65 0 0 0 1.47.09c.56 0 1.52 0 2.88-.13v2.72a10 10 0 0 1-1.67.28c-.73.07-1.45.1-2.17.1a8 8 0 0 1-3.46-.56 2.52 2.52 0 0 1-1.36-1.66 14.4 14.4 0 0 1-.28-3.34 14.75 14.75 0 0 1 .28-3.37 2.58 2.58 0 0 1 1.27-1.68 6.89 6.89 0 0 1 3.19-.56 7 7 0 0 1 3.17.52 2.22 2.22 0 0 1 1.16 1.57 20.31 20.31 0 0 1 .21 3.52zM46 13.5a.59.59 0 0 0-.2.45 8.88 8.88 0 0 0-.06 1.26h1.58a9 9 0 0 0-.06-1.27.59.59 0 0 0-.2-.44 1 1 0 0 0-.55-.1.93.93 0 0 0-.51.1zm6.65 7.83a2.87 2.87 0 0 1-.93-1.67 14.89 14.89 0 0 1-.3-3.41 14.77 14.77 0 0 1 .3-3.38 3 3 0 0 1 .94-1.71 2.75 2.75 0 0 1 1.74-.5 3.2 3.2 0 0 1 1.41.28 2.21 2.21 0 0 1 1 1H57v-6h4v15.7h-3.88L57 20.43h-.21a2.42 2.42 0 0 1-2.46 1.38 2.72 2.72 0 0 1-1.68-.48zm4.1-2.86a.68.68 0 0 0 .18-.46 17 17 0 0 0 .07-1.78v-1.68c0-.24-.09-.47-.19-.54a.88.88 0 0 0-.53-.12 1 1 0 0 0-.57.11.74.74 0 0 0-.17.52v3.42a.76.76 0 0 0 .17.52 1 1 0 0 0 .57.1 1.07 1.07 0 0 0 .47-.09z" class="cls-1"/><path d="M15.29 28.11a27.38 27.38 0 0 1-3.16.19q-4 0-5.88-1.3a5.92 5.92 0 0 1-2.46-3.77 34.82 34.82 0 0 1-.55-7.12A31.12 31.12 0 0 1 3.86 9a6.2 6.2 0 0 1 2.5-3.8A10.22 10.22 0 0 1 12 3.92a29.55 29.55 0 0 1 3.22.19c.58.06 1.11.14 1.57.23a1.38 1.38 0 0 1 1.1 1.35V9a23.92 23.92 0 0 0-4.41-.38 6.64 6.64 0 0 0-3.12.54 2.8 2.8 0 0 0-1.26 2 28.29 28.29 0 0 0-.3 4.93 26.09 26.09 0 0 0 .33 5 2.77 2.77 0 0 0 1.27 2 7.07 7.07 0 0 0 3.13.51 31 31 0 0 0 4.54-.32v3.2A1.37 1.37 0 0 1 17 27.86c-.52.14-1.09.19-1.71.25z" class="cls-1"/><path d="M21.91 23.92h38.33a1.33 1.33 0 0 1 1.33 1.33v2.81h-41v-2.81a1.33 1.33 0 0 1 1.34-1.33z" class="cls-2"/></g></symbol><symbol id="close" viewBox="0 0 256 256"><defs><style>.cls-1{fill:#f50057}</style></defs><g id="A2"><path d="M57.71 33.3l161.66 169.17-21.08 20.23L36.63 53.52 57.71 33.3z" class="cls-1"/><path d="M219.37 53.52L57.71 222.7l-21.08-20.23L198.29 33.3l21.08 20.22z" class="cls-1"/></g></symbol><symbol id="search" viewBox="0 0 256 256"><defs><style>.cls-1{fill:#f50057}</style></defs><g id="A2"><g id="Group_15"><path id="Subtraction_1" d="M232.16 196.84l-20.11 24.84L148.18 170a76.06 76.06 0 0 1-47.45 16.66 77 77 0 0 1-76.42-68.47A75.46 75.46 0 0 1 91 34.82l.84-.09a76.64 76.64 0 0 1 76.45 110.4zM62.56 80.06a48.31 48.31 0 1 0 68-6.6l-.29-.24a48.17 48.17 0 0 0-67.71 6.84z" class="cls-1"/></g></g></symbol><symbol id="big-c" viewBox="0 0 256 256"><defs><style>.cls-1{fill:#f40057}.cls-2{fill:#c41162}</style></defs><g id="A2"><path d="M165.71 204.49A235.59 235.59 0 0 1 140 206q-32.61 0-48.1-10.59a48.62 48.62 0 0 1-20.06-30.85 284.37 284.37 0 0 1-4.54-58.11 255.2 255.2 0 0 1 5.1-57.9A50.55 50.55 0 0 1 92.81 17.3a83.2 83.2 0 0 1 46.35-10.41 239.25 239.25 0 0 1 26.35 1.51 123 123 0 0 1 12.8 2 11.15 11.15 0 0 1 8.93 10.83v26.92a196.67 196.67 0 0 0-35.93-3 55.34 55.34 0 0 0-25.5 4.34 22.62 22.62 0 0 0-10.14 16.65 221.33 221.33 0 0 0-2.55 40.33 218.19 218.19 0 0 0 2.64 40.69 22.74 22.74 0 0 0 10.4 16.48 56.43 56.43 0 0 0 25.56 4 246.25 246.25 0 0 0 37.1-2.63v26.18a11.28 11.28 0 0 1-9.13 11.12q-6.36 1.31-14 2.15z" class="cls-1"/><path d="M71.19 216.88h113.66c2.18 0 3.94 4.87 3.94 10.86v22.95H67.27v-22.95c0-5.95 1.73-10.82 3.92-10.86z" class="cls-2"/></g></symbol><symbol id="pin-grey" viewBox="0 0 256 256"><defs><style>.cls-1{fill:#907b84}</style></defs><g id="A2"><path d="M128 14a79.29 79.29 0 0 0-47.58 142.68l40.48 81a8 8 0 0 0 3.55 3.55 7.94 7.94 0 0 0 10.64-3.55l40.47-80.95A79.29 79.29 0 0 0 128 14zm0 134.79a55.5 55.5 0 1 1 55.5-55.5 55.5 55.5 0 0 1-55.5 55.47z" class="cls-1"/><circle cx="128" cy="93.26" r="39.64" class="cls-1" transform="rotate(-16.85 127.947 93.226)"/></g></symbol><symbol id="pin-pink" viewBox="0 0 256 256"><defs><style>.cls-1{fill:#f50057}</style></defs><g id="A2"><path d="M128 14a79.29 79.29 0 0 0-47.58 142.68l40.48 81a8 8 0 0 0 3.55 3.55 7.94 7.94 0 0 0 10.64-3.55l40.47-80.95A79.29 79.29 0 0 0 128 14zm0 134.79a55.5 55.5 0 1 1 55.5-55.5 55.5 55.5 0 0 1-55.5 55.47z" class="cls-1"/><circle cx="128" cy="93.26" r="39.64" class="cls-1"/></g></symbol><symbol id="back" viewBox="0 0 256 256"><defs><style>.cls-1{fill:#f50057}</style></defs><g id="A2"><path d="M45.8 112.31h190.81v31.38H45.8z" class="cls-1" transform="rotate(180 141.2 128)"/><path d="M47.89 112.42l56.18 56.18-22.04 22.03L19.4 128l28.49-15.58z" class="cls-1"/><path d="M47.89 143.58l56.18-56.18-22.04-22.03L19.4 128l28.49 15.58z" class="cls-1"/></g></symbol></svg>