<svg xmlns="http://www.w3.org/2000/svg" viewBox="0 0 16 16"><defs><style>.cls-1{fill:#f40057;}.cls-2{fill:#c41162;}</style></defs><title>logo-16</title><g id="A2"><path class="cls-1" d="M10.24,12.5q-.76.08-1.53.09A5.1,5.1,0,0,1,5.86,12a2.89,2.89,0,0,1-1.19-1.83A16.62,16.62,0,0,1,4.4,6.68a15.2,15.2,0,0,1,.3-3.43A3,3,0,0,1,5.91,1.39,4.9,4.9,0,0,1,8.66.78c.52,0,1.05,0,1.56.08A6.35,6.35,0,0,1,11,1a.65.65,0,0,1,.53.64V3.22A12.58,12.58,0,0,0,9.38,3a3.42,3.42,0,0,0-1.51.26,1.34,1.34,0,0,0-.6,1,12.74,12.74,0,0,0-.15,2.39,12.9,12.9,0,0,0,.15,2.41,1.36,1.36,0,0,0,.62,1,3.29,3.29,0,0,0,1.52.24,14.79,14.79,0,0,0,2.2-.15v1.55a.68.68,0,0,1-.54.66l-.83.13Z"/><path class="cls-2" d="M4.63,13.23h6.74c.13,0,.24.29.24.64v1.37H4.4V13.87C4.4,13.52,4.5,13.23,4.63,13.23Z"/></g></svg>