<svg xmlns="http://www.w3.org/2000/svg" viewBox="0 0 64.08 64"><defs><style>.cls-1{fill:#f40057;}.cls-2{fill:#c41162;}</style></defs><title>Logo</title><g id="A3_-_Logo" data-name="A3 - Logo"><path class="cls-1" d="M18.93,36.32h-.19a2.62,2.62,0,0,1-2.55,1.38,2.86,2.86,0,0,1-1.74-.44A2.14,2.14,0,0,1,13.68,36a11.53,11.53,0,0,1-.19-2.33v-7h4v5.75c0,.71,0,1.19,0,1.43s.07.39.15.45a.76.76,0,0,0,.48.1.87.87,0,0,0,.51-.11.77.77,0,0,0,.15-.5c0-.26,0-.77,0-1.54V26.7h4V37.53H19Z"/><path class="cls-1" d="M23.73,26.7h3.91l.08,1.76h.21A3,3,0,0,1,29,27a3.21,3.21,0,0,1,1.78-.42v3.71a5,5,0,0,0-1.75.24,1.66,1.66,0,0,0-.94.9,5.07,5.07,0,0,0-.31,2v4.16h-4Z"/><path class="cls-1" d="M35.71,36.32H35.5l-.09,1.21H31.5V21.75h4v6h.21a2.18,2.18,0,0,1,1-1,3.24,3.24,0,0,1,1.42-.28,2.75,2.75,0,0,1,1.74.5,2.91,2.91,0,0,1,.93,1.71,15.58,15.58,0,0,1,.28,3.38,15.49,15.49,0,0,1-.29,3.4,2.93,2.93,0,0,1-.93,1.68,2.76,2.76,0,0,1-1.71.48A2.44,2.44,0,0,1,35.71,36.32Zm1.16-2a.83.83,0,0,0,.18-.54c0-.29,0-.85,0-1.69s0-1.39,0-1.68a.86.86,0,0,0-.18-.55,1.65,1.65,0,0,0-1,0c-.1,0-.16.17-.21.35a15.24,15.24,0,0,0-.08,1.91c0,.43,0,.8,0,1.13a4,4,0,0,0,.07.74.55.55,0,0,0,.19.39,1.18,1.18,0,0,0,.49.08A1,1,0,0,0,36.87,34.34Z"/><path class="cls-1" d="M50.7,33H45.39a4.29,4.29,0,0,0,.12,1.25.63.63,0,0,0,.5.41,7.65,7.65,0,0,0,1.47.09c.56,0,1.52,0,2.88-.13v2.72a10.16,10.16,0,0,1-1.67.27c-.73.07-1.45.11-2.17.11a8,8,0,0,1-3.46-.56,2.52,2.52,0,0,1-1.36-1.66,14.4,14.4,0,0,1-.28-3.34,14.69,14.69,0,0,1,.28-3.37A2.58,2.58,0,0,1,43,27.09a6.89,6.89,0,0,1,3.19-.56,7,7,0,0,1,3.17.52,2.22,2.22,0,0,1,1.16,1.57,20.31,20.31,0,0,1,.21,3.52Zm-5.05-3.6a.64.64,0,0,0-.2.46,8.81,8.81,0,0,0-.06,1.25H47a8.79,8.79,0,0,0-.06-1.26.63.63,0,0,0-.2-.45,1.16,1.16,0,0,0-.55-.09A1.05,1.05,0,0,0,45.65,29.38Z"/><path class="cls-1" d="M52.29,37.22a2.93,2.93,0,0,1-.93-1.68,14.79,14.79,0,0,1-.3-3.4,14.77,14.77,0,0,1,.3-3.38,3,3,0,0,1,.94-1.71,2.75,2.75,0,0,1,1.74-.5,3.2,3.2,0,0,1,1.41.28,2.21,2.21,0,0,1,1,1h.21v-6h4V37.53H56.76l-.09-1.21h-.21A2.42,2.42,0,0,1,54,37.7,2.72,2.72,0,0,1,52.29,37.22Zm4.1-2.87a.63.63,0,0,0,.18-.45,17.09,17.09,0,0,0,.06-1.79c0-.87,0-1.43,0-1.67a.82.82,0,0,0-.19-.55,1,1,0,0,0-.53-.11,1,1,0,0,0-.57.1.76.76,0,0,0-.17.52q0,.42,0,1.71t0,1.71a.74.74,0,0,0,.17.52.94.94,0,0,0,.57.11A1,1,0,0,0,56.39,34.35Z"/><path class="cls-1" d="M14.93,44a27.38,27.38,0,0,1-3.16.19q-4,0-5.88-1.3a5.91,5.91,0,0,1-2.46-3.78A34.64,34.64,0,0,1,2.88,32a31.12,31.12,0,0,1,.62-7.09A6.2,6.2,0,0,1,6,21.09a10.22,10.22,0,0,1,5.68-1.28A27.24,27.24,0,0,1,14.9,20c.58.06,1.11.14,1.57.23a1.37,1.37,0,0,1,1.1,1.35v3.28a24.86,24.86,0,0,0-4.41-.37A6.64,6.64,0,0,0,10,25a2.79,2.79,0,0,0-1.26,2A28.42,28.42,0,0,0,8.48,32a26.09,26.09,0,0,0,.33,5,2.77,2.77,0,0,0,1.27,2,7.07,7.07,0,0,0,3.13.51,29.64,29.64,0,0,0,4.54-.33v3.21a1.37,1.37,0,0,1-1.11,1.36C16.12,43.85,15.55,43.93,14.93,44Z"/><path class="cls-2" d="M21.55,39.81H59.88a1.33,1.33,0,0,1,1.33,1.33v2.81a0,0,0,0,1,0,0h-41a0,0,0,0,1,0,0V41.14A1.33,1.33,0,0,1,21.55,39.81Z"/></g></svg>