<svg xmlns="http://www.w3.org/2000/svg" viewBox="0 0 32 32"><defs><style>.cls-1{fill:#f40057;}.cls-2{fill:#c41162;}</style></defs><title>Logo</title><g id="A3_-_Logo" data-name="A3 - Logo"><path class="cls-1" d="M9.56,18.12h-.1a1.28,1.28,0,0,1-1.25.68,1.45,1.45,0,0,1-.86-.21A1,1,0,0,1,7,18a4.83,4.83,0,0,1-.1-1.14V13.39h2v2.83c0,.35,0,.58,0,.7a.41.41,0,0,0,.07.23.45.45,0,0,0,.24,0c.13,0,.21,0,.25-.05a.35.35,0,0,0,.08-.24c0-.13,0-.38,0-.76V13.39h2v5.33H9.6Z"/><path class="cls-1" d="M11.91,13.39h1.93l0,.87H14a1.47,1.47,0,0,1,.51-.74,1.57,1.57,0,0,1,.88-.21v1.83a2.72,2.72,0,0,0-.86.11.81.81,0,0,0-.46.45,2.43,2.43,0,0,0-.15,1v2h-2Z"/><path class="cls-1" d="M17.8,18.12h-.1l0,.6H15.74V11h2v3h.1a1.08,1.08,0,0,1,.48-.47,1.68,1.68,0,0,1,.7-.14,1.32,1.32,0,0,1,.86.25,1.4,1.4,0,0,1,.45.84,7.1,7.1,0,0,1,.15,1.66,7.13,7.13,0,0,1-.15,1.67,1.43,1.43,0,0,1-.46.83,1.38,1.38,0,0,1-.84.23A1.2,1.2,0,0,1,17.8,18.12Zm.57-1c.05,0,.08-.12.09-.26s0-.42,0-.83,0-.69,0-.83,0-.24-.09-.27a.53.53,0,0,0-.27-.05.66.66,0,0,0-.24,0,.3.3,0,0,0-.1.18,6.43,6.43,0,0,0,0,.94v.55a2.27,2.27,0,0,0,0,.36.26.26,0,0,0,.1.19.45.45,0,0,0,.24,0A.44.44,0,0,0,18.37,17.15Z"/><path class="cls-1" d="M25.17,16.48H22.56a2,2,0,0,0,.06.61.32.32,0,0,0,.25.21,3.77,3.77,0,0,0,.72,0c.28,0,.75,0,1.42-.06v1.33a5,5,0,0,1-.83.14c-.35,0-.71.05-1.06.05a4,4,0,0,1-1.7-.27,1.24,1.24,0,0,1-.67-.82,7.28,7.28,0,0,1-.14-1.64,7.48,7.48,0,0,1,.14-1.66,1.26,1.26,0,0,1,.62-.82,3.28,3.28,0,0,1,1.57-.28,3.45,3.45,0,0,1,1.56.26,1.08,1.08,0,0,1,.57.77,9.92,9.92,0,0,1,.1,1.73Zm-2.48-1.77a.35.35,0,0,0-.1.23,4.21,4.21,0,0,0,0,.61h.78a4.37,4.37,0,0,0,0-.62.35.35,0,0,0-.1-.22.58.58,0,0,0-.27,0A.51.51,0,0,0,22.69,14.71Z"/><path class="cls-1" d="M26,18.57a1.48,1.48,0,0,1-.45-.83,7.13,7.13,0,0,1-.15-1.67,7.1,7.1,0,0,1,.15-1.66,1.46,1.46,0,0,1,.46-.84,1.3,1.3,0,0,1,.85-.25,1.65,1.65,0,0,1,.7.14,1,1,0,0,1,.47.47h.11V11h2v7.76H28.15l0-.6H28a1.18,1.18,0,0,1-1.21.68A1.42,1.42,0,0,1,26,18.57Zm2-1.41a.38.38,0,0,0,.09-.23,8,8,0,0,0,0-.87c0-.44,0-.71,0-.83S28,15,28,15a.41.41,0,0,0-.26-.06.58.58,0,0,0-.28.05.39.39,0,0,0-.08.26c0,.13,0,.41,0,.84s0,.7,0,.84a.38.38,0,0,0,.08.25.48.48,0,0,0,.28.05A.54.54,0,0,0,28,17.16Z"/><path class="cls-1" d="M7.59,21.9A14.38,14.38,0,0,1,6,22a5.13,5.13,0,0,1-2.89-.64A2.87,2.87,0,0,1,1.94,19.5,17.14,17.14,0,0,1,1.66,16,15.7,15.7,0,0,1,2,12.51,3.06,3.06,0,0,1,3.2,10.64,5,5,0,0,1,6,10a14.39,14.39,0,0,1,1.59.09,7.36,7.36,0,0,1,.77.12.68.68,0,0,1,.54.66v1.61a12.13,12.13,0,0,0-2.17-.18,3.44,3.44,0,0,0-1.54.26,1.39,1.39,0,0,0-.61,1A13.83,13.83,0,0,0,4.42,16a12.73,12.73,0,0,0,.16,2.45,1.4,1.4,0,0,0,.63,1,3.39,3.39,0,0,0,1.53.25A14.49,14.49,0,0,0,9,19.53v1.58a.68.68,0,0,1-.55.67C8.17,21.82,7.89,21.87,7.59,21.9Z"/><path class="cls-2" d="M10.85,19.84H29.68a.65.65,0,0,1,.65.65v1.38a0,0,0,0,1,0,0H10.19a0,0,0,0,1,0,0V20.49A.65.65,0,0,1,10.85,19.84Z"/></g></svg>