<svg xmlns="http://www.w3.org/2000/svg" viewBox="0 0 16 16"><defs><style>.cls-1{fill:#f40057;}.cls-2{fill:#c41162;}</style></defs><title>Logo</title><g id="A3_-_Logo" data-name="A3 - Logo"><path class="cls-1" d="M4.78,9.06h0a.65.65,0,0,1-.63.34.62.62,0,0,1-.42-.11A.47.47,0,0,1,3.49,9a2.79,2.79,0,0,1-.05-.57V6.7h1V8.11c0,.18,0,.29,0,.35s0,.1,0,.11a.16.16,0,0,0,.11,0,.19.19,0,0,0,.13,0,.24.24,0,0,0,0-.12c0-.07,0-.19,0-.38V6.7h1V9.36h-1Z"/><path class="cls-1" d="M6,6.7h1l0,.43H7a.72.72,0,0,1,.26-.37.78.78,0,0,1,.44-.1v.91a1.29,1.29,0,0,0-.44.06A.41.41,0,0,0,7,7.85,1.24,1.24,0,0,0,7,8.34v1H6Z"/><path class="cls-1" d="M8.9,9.06H8.85l0,.3h-1V5.48h1V7h.05a.48.48,0,0,1,.24-.23.78.78,0,0,1,.35-.07.69.69,0,0,1,.43.12.76.76,0,0,1,.23.42,4.34,4.34,0,0,1,.07.83,3.54,3.54,0,0,1-.08.84.64.64,0,0,1-.22.41.7.7,0,0,1-.42.12A.61.61,0,0,1,8.9,9.06Zm.29-.48a.29.29,0,0,0,0-.14,4,4,0,0,0,0-.41,4.14,4.14,0,0,0,0-.42.24.24,0,0,0,0-.13.24.24,0,0,0-.14,0l-.12,0a.13.13,0,0,0,0,.09,4.11,4.11,0,0,0,0,.47V8.3a.84.84,0,0,0,0,.19s0,.08,0,.09.06,0,.12,0Z"/><path class="cls-1" d="M12.59,8.24H11.28a1.09,1.09,0,0,0,0,.31.15.15,0,0,0,.12.1l.36,0,.71,0v.67a2.44,2.44,0,0,1-.41.06,4.71,4.71,0,0,1-.53,0,2,2,0,0,1-.85-.14.64.64,0,0,1-.34-.4A4.2,4.2,0,0,1,10.31,8a4.08,4.08,0,0,1,.06-.82.65.65,0,0,1,.32-.42,1.69,1.69,0,0,1,.78-.13,1.8,1.8,0,0,1,.78.12.53.53,0,0,1,.28.39,4.27,4.27,0,0,1,.06.86Zm-1.25-.88s0,0,0,.11a2,2,0,0,0,0,.31h.39c0-.15,0-.26,0-.31s0-.1-.05-.11a.24.24,0,0,0-.14,0A.23.23,0,0,0,11.34,7.36Z"/><path class="cls-1" d="M13,9.28a.65.65,0,0,1-.23-.41A3.64,3.64,0,0,1,12.68,8a3.65,3.65,0,0,1,.07-.83A.7.7,0,0,1,13,6.78a.69.69,0,0,1,.43-.12.71.71,0,0,1,.34.07A.48.48,0,0,1,14,7h0V5.48h1V9.36h-1l0-.3H14a.58.58,0,0,1-.6.34A.66.66,0,0,1,13,9.28Zm1-.7s0-.05,0-.11,0-.23,0-.44a3.59,3.59,0,0,0,0-.41.21.21,0,0,0,0-.14.23.23,0,0,0-.13,0,.22.22,0,0,0-.14,0s0,.06,0,.13a4.14,4.14,0,0,0,0,.42,4.14,4.14,0,0,0,0,.42c0,.07,0,.11,0,.13l.14,0Z"/><path class="cls-1" d="M3.79,11A7.09,7.09,0,0,1,3,11a2.64,2.64,0,0,1-1.45-.32A1.5,1.5,0,0,1,1,9.75,8.57,8.57,0,0,1,.83,8,7.23,7.23,0,0,1,1,6.26a1.49,1.49,0,0,1,.61-.94A2.5,2.5,0,0,1,3,5a7.29,7.29,0,0,1,.79,0l.38.06a.33.33,0,0,1,.27.33v.81a5.84,5.84,0,0,0-1.08-.1,1.62,1.62,0,0,0-.77.14.69.69,0,0,0-.31.5A8.07,8.07,0,0,0,2.21,8a6.71,6.71,0,0,0,.08,1.22.69.69,0,0,0,.31.5,1.81,1.81,0,0,0,.77.13,7.87,7.87,0,0,0,1.12-.08v.78a.34.34,0,0,1-.28.34Z"/><path class="cls-2" d="M5.42,9.92h9.42a.33.33,0,0,1,.33.33v.69a0,0,0,0,1,0,0H5.1a0,0,0,0,1,0,0v-.69A.33.33,0,0,1,5.42,9.92Z"/></g></svg>