<svg xmlns="http://www.w3.org/2000/svg" viewBox="0 0 64.8 29.52" width="64.8" height="29.52"><defs><style>.cls-1{fill:#f40057}.cls-2{fill:#c41162}</style></defs><g id="A3_-_Logo"><path d="M19.29 20.43h-.19a2.62 2.62 0 0 1-2.55 1.38 2.86 2.86 0 0 1-1.74-.43A2.17 2.17 0 0 1 14 20.1a11.49 11.49 0 0 1-.19-2.32v-7h4v7.18a.7.7 0 0 0 .15.46.85.85 0 0 0 .48.09.8.8 0 0 0 .51-.11.75.75 0 0 0 .15-.49v-7.1h4v10.83h-3.73zm4.8-9.62H28l.08 1.76h.21a3 3 0 0 1 1.05-1.51 3.21 3.21 0 0 1 1.78-.42v3.72a5.06 5.06 0 0 0-1.75.23 1.69 1.69 0 0 0-.94.9 5.07 5.07 0 0 0-.31 2v4.16h-4zm11.98 9.62h-.21l-.09 1.21h-3.91V5.86h4v6h.21a2.18 2.18 0 0 1 1-1 3.24 3.24 0 0 1 1.42-.28 2.75 2.75 0 0 1 1.74.5 2.91 2.91 0 0 1 .93 1.71 15.58 15.58 0 0 1 .28 3.38 15.59 15.59 0 0 1-.29 3.41 2.87 2.87 0 0 1-.93 1.67 2.76 2.76 0 0 1-1.71.48 2.44 2.44 0 0 1-2.44-1.3zm1.16-2c.09-.07.15-.25.18-.55s0-.85 0-1.68v-1.69a.83.83 0 0 0-.18-.54 1 1 0 0 0-.57-.11 1.07 1.07 0 0 0-.47.07c-.1 0-.16.17-.21.35a15.32 15.32 0 0 0-.08 1.92v1.12a4.13 4.13 0 0 0 .07.75.55.55 0 0 0 .19.38 1.18 1.18 0 0 0 .49.08 1.06 1.06 0 0 0 .58-.07zm13.83-1.33h-5.31a4.21 4.21 0 0 0 .12 1.24.63.63 0 0 0 .5.41 7.65 7.65 0 0 0 1.47.09c.56 0 1.52 0 2.88-.13v2.72a10 10 0 0 1-1.67.28c-.73.07-1.45.1-2.17.1a8 8 0 0 1-3.46-.56 2.52 2.52 0 0 1-1.36-1.66 14.4 14.4 0 0 1-.28-3.34 14.75 14.75 0 0 1 .28-3.37 2.58 2.58 0 0 1 1.27-1.68 6.89 6.89 0 0 1 3.19-.56 7 7 0 0 1 3.17.52 2.22 2.22 0 0 1 1.16 1.57 20.31 20.31 0 0 1 .21 3.52zM46 13.5a.59.59 0 0 0-.2.45 8.88 8.88 0 0 0-.06 1.26h1.58a9 9 0 0 0-.06-1.27.59.59 0 0 0-.2-.44 1 1 0 0 0-.55-.1.93.93 0 0 0-.51.1zm6.65 7.83a2.87 2.87 0 0 1-.93-1.67 14.89 14.89 0 0 1-.3-3.41 14.77 14.77 0 0 1 .3-3.38 3 3 0 0 1 .94-1.71 2.75 2.75 0 0 1 1.74-.5 3.2 3.2 0 0 1 1.41.28 2.21 2.21 0 0 1 1 1H57v-6h4v15.7h-3.88L57 20.43h-.21a2.42 2.42 0 0 1-2.46 1.38 2.72 2.72 0 0 1-1.68-.48zm4.1-2.86a.68.68 0 0 0 .18-.46 17 17 0 0 0 .07-1.78v-1.68c0-.24-.09-.47-.19-.54a.88.88 0 0 0-.53-.12 1 1 0 0 0-.57.11.74.74 0 0 0-.17.52v3.42a.76.76 0 0 0 .17.52 1 1 0 0 0 .57.1 1.07 1.07 0 0 0 .47-.09z" class="cls-1"/><path d="M15.29 28.11a27.38 27.38 0 0 1-3.16.19q-4 0-5.88-1.3a5.92 5.92 0 0 1-2.46-3.77 34.82 34.82 0 0 1-.55-7.12A31.12 31.12 0 0 1 3.86 9a6.2 6.2 0 0 1 2.5-3.8A10.22 10.22 0 0 1 12 3.92a29.55 29.55 0 0 1 3.22.19c.58.06 1.11.14 1.57.23a1.38 1.38 0 0 1 1.1 1.35V9a23.92 23.92 0 0 0-4.41-.38 6.64 6.64 0 0 0-3.12.54 2.8 2.8 0 0 0-1.26 2 28.29 28.29 0 0 0-.3 4.93 26.09 26.09 0 0 0 .33 5 2.77 2.77 0 0 0 1.27 2 7.07 7.07 0 0 0 3.13.51 31 31 0 0 0 4.54-.32v3.2A1.37 1.37 0 0 1 17 27.86c-.52.14-1.09.19-1.71.25z" class="cls-1"/><path d="M21.91 23.92h38.33a1.33 1.33 0 0 1 1.33 1.33v2.81h-41v-2.81a1.33 1.33 0 0 1 1.34-1.33z" class="cls-2"/></g></svg>